# xmcd
#
# Track frame offsets:
#       150
#       17210
#       36245
#       63290
#       81907
#       98572
#       117407
#       139565
#       160370
#       219512
#       244202
#       249830
#       270950
#       290925
#
# Disc length: 4106 seconds
#
# Revision: 1
# Processed by: cddbd v1.5.1PL0 Copyright (c) Steve Scherf et al.
# Submitted via: MusiCat 1.1
#
DISCID=c410080e
DTITLE=The Shooting Party - In Concert
DYEAR=1993
DGENRE=
TTITLE0=Trash
TTITLE1=Good intentions
TTITLE2=John Thomas
TTITLE3=Out of the Blues
TTITLE4=The girl has changed
TTITLE5=Too beautiful
TTITLE6=Civilization
TTITLE7=Sweet little alien
TTITLE8=The suit
TTITLE9=Charityville
TTITLE10=I've just come back from singing class
TTITLE11=Sleep
TTITLE12=De liefde
TTITLE13=Christmas
EXTD=KIK\nKik 1954\nSongs from the V.S.O.P.-tour '93/94 Live
EXTT0=
EXTT1=
EXTT2=
EXTT3=
EXTT4=
EXTT5=
EXTT6=
EXTT7=
EXTT8=
EXTT9=
EXTT10=
EXTT11=
EXTT12=
EXTT13=
PLAYORDER=
